<svg width="20" height="20" viewBox="0 0 20 20" fill="none" xmlns="http://www.w3.org/2000/svg">
<path d="M9.99999 1.69995C5.41666 1.69995 1.66666 5.44162 1.66666 10.05C1.66666 14.2166 4.71666 17.6749 8.69999 18.2999V12.4666H6.58332V10.05H8.69999V8.20828C8.69999 6.11662 9.94166 4.96662 11.85 4.96662C12.7583 4.96662 13.7083 5.12495 13.7083 5.12495V7.18328H12.6583C11.625 7.18328 11.3 7.82495 11.3 8.48328V10.05H13.6167L13.2417 12.4666H11.3V18.2999C13.2637 17.9898 15.0518 16.9879 16.3416 15.475C17.6314 13.9621 18.3378 12.038 18.3333 10.05C18.3333 5.44162 14.5833 1.69995 9.99999 1.69995Z" fill="#BD202F"/>
</svg>
