<svg width="32" height="32" viewBox="0 0 32 32" fill="none" xmlns="http://www.w3.org/2000/svg">
<circle cx="16" cy="16.0002" r="16" transform="rotate(-180 16 16.0002)" fill="#BB0000"/>
<path d="M9.42659 22H11.1344C11.37 22 11.561 21.809 11.561 21.5734V14.1087C11.561 13.873 11.37 13.6821 11.1344 13.6821H9.42659C9.19095 13.6821 9 13.873 9 14.1087V21.5734C9 21.809 9.19095 22 9.42659 22Z" fill="white"/>
<path d="M9.42659 12.3699H11.1344C11.37 12.3699 11.561 12.1789 11.561 11.9433V10.4268C11.561 10.1912 11.37 10.0002 11.1344 10.0002H9.42659C9.19095 10.0002 9 10.1912 9 10.4268V11.9433C9 12.1789 9.19095 12.3699 9.42659 12.3699Z" fill="white"/>
<path d="M21.4942 14.548C21.2542 14.2321 20.9004 13.9724 20.4325 13.7687C19.9646 13.5653 19.4481 13.4634 18.883 13.4634C17.7359 13.4634 16.7639 13.9012 15.967 14.777C15.8085 14.9512 15.6932 14.9131 15.6932 14.6775V14.1088C15.6932 13.8732 15.5022 13.6822 15.2666 13.6822H13.741C13.5054 13.6822 13.3145 13.8732 13.3145 14.1088V21.5736C13.3145 21.8092 13.5054 22.0002 13.741 22.0002H15.4488C15.6845 22.0002 15.8754 21.8092 15.8754 21.5736V18.9775C15.8754 17.896 15.9407 17.1547 16.0714 16.7537C16.2019 16.3527 16.4435 16.0307 16.7959 15.7876C17.1484 15.5446 17.5463 15.423 17.9899 15.423C18.3362 15.423 18.6324 15.5081 18.8785 15.6783C19.1246 15.8484 19.3024 16.0868 19.4117 16.3937C19.5212 16.7006 19.5758 17.3765 19.5758 18.4216V21.5735C19.5758 21.8091 19.7668 22.0001 20.0024 22.0001H21.7102C21.9458 22.0001 22.1367 21.8091 22.1367 21.5735V17.3461C22.1367 16.5988 22.0896 16.0246 21.9956 15.6236C21.9015 15.2226 21.7343 14.8641 21.4942 14.548Z" fill="white"/>
</svg>
