<svg width="512" height="176" viewBox="0 0 512 176" fill="none" xmlns="http://www.w3.org/2000/svg">
<g clip-path="url(#clip0_902_289)">
<path d="M302.572 89.0161C293.222 81.2647 281.119 76.2601 270.444 71.8429C255.725 65.7556 243.008 60.503 243.008 50.7619C243.008 46.5076 244.998 42.5997 248.619 39.7806C252.436 36.8038 257.767 35.1681 263.62 35.1681C282.026 35.1681 296.706 48.1845 296.837 48.3019L300.425 51.5761L316.737 20.982L314.871 19.0104C314.159 18.2558 296.98 0.519821 263.841 0.519821C247.941 0.519821 233.319 5.6022 222.651 14.8283C211.827 24.1911 205.85 37.1168 205.85 51.2162C205.85 64.9633 211.187 76.0814 222.142 85.1969C231.355 92.8501 242.832 97.7959 253.937 102.585C269.081 109.11 282.176 114.753 282.176 124.795C282.176 132.441 276.995 140.617 262.478 140.617C241.658 140.617 224.948 124.762 224.785 124.599L221.653 121.559L201.374 149.661L203.397 151.926C203.624 152.16 208.865 157.948 218.71 163.709C227.741 168.981 242.591 175.271 262.015 175.271C279.011 175.271 293.496 170.058 303.909 160.206C313.703 150.927 319.092 138.113 319.092 124.118C319.092 109.718 313.69 98.2346 302.572 89.0153" fill="white"/>
<path d="M474 172.747H512V3.04684H474V172.747Z" fill="white"/>
<path d="M399.724 140.965H370.8V34.8158H396.305C407.736 34.8158 414.293 41.2098 414.293 52.3539C414.293 63.6155 408.395 69.3181 396.755 69.3181H387.973V100.551H399.724C406.151 100.551 411.507 102.554 415.207 106.365C419.096 110.358 420.674 114.312 420.674 120.008C420.674 132.94 412.649 140.965 399.724 140.965M450.179 96.4805C446.421 90.5688 441.266 85.871 435.133 82.7263C445.031 74.7921 450.629 62.6104 450.629 48.7002C450.629 34.633 445.272 22.9017 435.133 14.7524C425.581 7.08596 412.316 3.02783 396.755 3.02783H334.927V172.727H397.447C414.032 172.727 428.38 168.538 438.93 160.598C450.91 151.594 457.232 138.192 457.232 121.829C457.232 112.505 454.799 103.736 450.179 96.4805Z" fill="white"/>
<path d="M87.7305 0C39.2784 0 0 39.3695 0 87.9328C0 133.462 34.522 170.907 78.7526 175.409V111.532C69.2462 107.906 62.4736 98.6983 62.4736 87.9328C62.4736 74.0025 73.8003 62.6691 87.7305 62.6691C101.654 62.6691 112.994 74.0025 112.994 87.9328C112.994 98.6983 106.208 107.904 96.7019 111.532V175.409C140.939 170.907 175.461 133.462 175.461 87.9328C175.461 39.3695 136.183 0 87.7305 0" fill="white"/>
</g>
<defs>
<clipPath id="clip0_902_289">
<rect width="512" height="175.409" fill="white"/>
</clipPath>
</defs>
</svg>
