<svg width="16" height="12" viewBox="0 0 16 12" fill="none" xmlns="http://www.w3.org/2000/svg">
<path d="M15.6703 1.75293C15.486 1.06748 14.9455 0.527149 14.2602 0.342579C13.0081 0 7.99982 0 7.99982 0C7.99982 0 2.9917 0 1.73965 0.32959C1.06748 0.513966 0.513868 1.06758 0.329493 1.75293C0 3.00489 0 5.60128 0 5.60128C0 5.60128 0 8.21076 0.329493 9.44963C0.514063 10.135 1.0543 10.6753 1.73975 10.8599C3.00489 11.2026 8.00002 11.2026 8.00002 11.2026C8.00002 11.2026 13.0081 11.2026 14.2602 10.873C14.9456 10.6885 15.486 10.1482 15.6705 9.46281C15.9999 8.21076 15.9999 5.61446 15.9999 5.61446C15.9999 5.61446 16.0131 3.00489 15.6703 1.75293ZM6.40529 7.99992V3.20264L10.5699 5.60128L6.40529 7.99992Z" fill="#BD202F"/>
</svg>
