<svg width="16" height="16" viewBox="0 0 16 16" fill="none" xmlns="http://www.w3.org/2000/svg">
<path d="M11.0249 10L8.92491 12.0833C6.84158 10.8917 5.11658 9.16667 3.92491 7.08333L6.00825 4.98333C6.19991 4.78333 6.28325 4.50833 6.23325 4.23333L5.60825 1.16667C5.53325 0.783333 5.19158 0.5 4.79158 0.5H1.33325C0.86658 0.5 0.474914 0.891667 0.499914 1.35833C0.64158 3.76667 1.37491 6.025 2.52491 8C3.84158 10.275 5.73325 12.1583 7.99991 13.475C9.97491 14.6167 12.2332 15.3583 14.6416 15.5C15.1082 15.525 15.4999 15.1333 15.4999 14.6667V11.2083C15.4999 10.8083 15.2166 10.4667 14.8332 10.3917L11.7749 9.78333C11.4999 9.725 11.2166 9.80833 11.0249 10Z" fill="white"/>
</svg>
