<svg width="24" height="22" viewBox="0 0 24 22" fill="none" xmlns="http://www.w3.org/2000/svg">
<path d="M0.779348 21.9231H3.89939C4.32983 21.9231 4.67873 21.5742 4.67873 21.1438V7.50615C4.67873 7.07567 4.32983 6.72681 3.89939 6.72681H0.779348C0.348861 6.72681 0 7.07567 0 7.50615V21.1438C0 21.5742 0.348861 21.9231 0.779348 21.9231Z" fill="white"/>
<path d="M0.779348 4.32931H3.89939C4.32983 4.32931 4.67873 3.9804 4.67873 3.54996V0.779348C4.67873 0.348905 4.32983 0 3.89939 0H0.779348C0.348861 0 0 0.348905 0 0.779348V3.54996C0 3.9804 0.348861 4.32931 0.779348 4.32931Z" fill="white"/>
<path d="M22.8257 8.3086C22.3873 7.73149 21.7408 7.25689 20.886 6.88489C20.0311 6.51315 19.0876 6.32715 18.0553 6.32715C15.9596 6.32715 14.1838 7.12695 12.7279 8.72684C12.4383 9.04518 12.2276 8.97558 12.2276 8.5451V7.50616C12.2276 7.07567 11.8787 6.72681 11.4483 6.72681H8.66118C8.2307 6.72681 7.88184 7.07567 7.88184 7.50616V21.1438C7.88184 21.5742 8.23074 21.9232 8.66118 21.9232H11.7812C12.2117 21.9232 12.5606 21.5742 12.5606 21.1438V16.401C12.5606 14.4251 12.6799 13.0708 12.9185 12.3382C13.157 11.6056 13.5984 11.0173 14.2422 10.5733C14.8861 10.1293 15.6131 9.90715 16.4235 9.90715C17.0562 9.90715 17.5974 10.0626 18.047 10.3735C18.4966 10.6844 18.8214 11.1199 19.0212 11.6806C19.2211 12.2412 19.3209 13.476 19.3209 15.3854V21.1437C19.3209 21.5742 19.6698 21.9231 20.1002 21.9231H23.2203C23.6507 21.9231 23.9996 21.5742 23.9996 21.1437V13.4205C23.9996 12.0552 23.9135 11.0062 23.7416 10.2736C23.5697 9.54101 23.2644 8.88601 22.8257 8.3086Z" fill="white"/>
</svg>
