<svg width="73" height="58" viewBox="0 0 73 58" fill="none" xmlns="http://www.w3.org/2000/svg">
<path fill-rule="evenodd" clip-rule="evenodd" d="M48.375 30.4687L65.8609 30.4688C64.7453 37.8982 60.5535 44.5146 54.3125 48.6969L48.9984 52.2594L52.2641 57.1875L57.5781 53.625C66.6627 47.571 72.1213 37.3779 72.125 26.4609L72.125 6.71875C72.125 3.43956 69.4667 0.781254 66.1875 0.781253L48.375 0.781252C45.0958 0.781251 42.4375 3.43956 42.4375 6.71875L42.4375 24.5313C42.4375 27.8104 45.0958 30.4687 48.375 30.4687ZM6.81249 30.4687L24.2984 30.4687C23.1828 37.8982 18.9909 44.5146 12.75 48.6969L7.43593 52.2594L10.6719 57.1875L16.0156 53.625C25.1002 47.571 30.5588 37.3779 30.5625 26.4609L30.5625 6.71875C30.5625 3.43956 27.9042 0.78125 24.625 0.78125L6.8125 0.781248C3.53331 0.781248 0.874997 3.43956 0.874997 6.71875L0.874995 24.5312C0.874995 27.8104 3.5333 30.4687 6.81249 30.4687Z" fill="#161616" fill-opacity="0.16"/>
</svg>
