<svg width="16" height="16" viewBox="0 0 16 16" fill="none" xmlns="http://www.w3.org/2000/svg">
<path d="M11.0249 10L8.92494 12.0833C6.84161 10.8917 5.11661 9.16667 3.92494 7.08333L6.00828 4.98333C6.19994 4.78333 6.28328 4.50833 6.23328 4.23333L5.60828 1.16667C5.53328 0.783333 5.19161 0.5 4.79161 0.5H1.33328C0.866611 0.5 0.474944 0.891667 0.499944 1.35833C0.641611 3.76667 1.37494 6.025 2.52494 8C3.84161 10.275 5.73328 12.1583 7.99994 13.475C9.97494 14.6167 12.2333 15.3583 14.6416 15.5C15.1083 15.525 15.4999 15.1333 15.4999 14.6667V11.2083C15.4999 10.8083 15.2166 10.4667 14.8333 10.3917L11.7749 9.78333C11.4999 9.725 11.2166 9.80833 11.0249 10Z" fill="#BD202F"/>
</svg>
