<svg width="18" height="18" viewBox="0 0 18 18" fill="none" xmlns="http://www.w3.org/2000/svg">
<path d="M8.99984 0.699951C4.4165 0.699951 0.666504 4.44162 0.666504 9.04995C0.666504 13.2166 3.7165 16.6749 7.69984 17.2999V11.4666H5.58317V9.04995H7.69984V7.20828C7.69984 5.11662 8.94151 3.96662 10.8498 3.96662C11.7582 3.96662 12.7082 4.12495 12.7082 4.12495V6.18328H11.6582C10.6248 6.18328 10.2998 6.82495 10.2998 7.48328V9.04995H12.6165L12.2415 11.4666H10.2998V17.2999C12.2635 16.9898 14.0517 15.9879 15.3414 14.475C16.6312 12.9621 17.3376 11.038 17.3332 9.04995C17.3332 4.44162 13.5832 0.699951 8.99984 0.699951Z" fill="white"/>
</svg>
