<svg width="18" height="18" viewBox="0 0 18 18" fill="none" xmlns="http://www.w3.org/2000/svg">
<g clip-path="url(#clip0)">
<path d="M17.3188 5.56606C17.2797 4.68032 17.1365 4.07138 16.9313 3.54373C16.7196 2.98364 16.394 2.48219 15.9673 2.06533C15.5505 1.64199 15.0457 1.31303 14.4921 1.10467C13.9614 0.899481 13.3557 0.756246 12.4699 0.717194C11.5776 0.674834 11.2943 0.665039 9.03101 0.665039C6.76775 0.665039 6.48446 0.674834 5.59542 0.713886C4.70968 0.752939 4.10074 0.896301 3.57321 1.10136C3.01299 1.31303 2.51154 1.63868 2.09469 2.06533C1.67134 2.48219 1.34251 2.98695 1.13402 3.54055C0.928839 4.07138 0.785604 4.67702 0.746552 5.56276C0.704192 6.45511 0.694397 6.7384 0.694397 9.00167C0.694397 11.2649 0.704192 11.5482 0.743244 12.4373C0.782297 13.323 0.925659 13.9319 1.13084 14.4596C1.34251 15.0197 1.67134 15.5211 2.09469 15.938C2.51154 16.3613 3.0163 16.6903 3.5699 16.8987C4.10074 17.1039 4.70637 17.2471 5.59224 17.2861C6.48115 17.3253 6.76457 17.335 9.02783 17.335C11.2911 17.335 11.5744 17.3253 12.4634 17.2861C13.3492 17.2471 13.9581 17.1039 14.4856 16.8987C15.6059 16.4655 16.4917 15.5798 16.9248 14.4596C17.1299 13.9288 17.2732 13.323 17.3123 12.4373C17.3513 11.5482 17.3611 11.2649 17.3611 9.00167C17.3611 6.7384 17.3578 6.45511 17.3188 5.56606ZM15.8176 12.3721C15.7817 13.1863 15.645 13.6259 15.531 13.919C15.2509 14.6452 14.6745 15.2216 13.9483 15.5017C13.6552 15.6157 13.2124 15.7524 12.4015 15.7882C11.5222 15.8273 11.2585 15.837 9.03432 15.837C6.81011 15.837 6.5431 15.8273 5.66703 15.7882C4.85291 15.7524 4.41328 15.6157 4.1202 15.5017C3.75881 15.3681 3.42985 15.1564 3.16284 14.8796C2.88604 14.6093 2.67437 14.2837 2.5408 13.9223C2.42682 13.6292 2.29008 13.1863 2.25433 12.3754C2.21515 11.4962 2.20548 11.2324 2.20548 9.00815C2.20548 6.78394 2.21515 6.51694 2.25433 5.64099C2.29008 4.82687 2.42682 4.38724 2.5408 4.09415C2.67437 3.73263 2.88604 3.4038 3.16615 3.13667C3.43634 2.85987 3.76199 2.64819 4.12351 2.51475C4.41659 2.40078 4.85952 2.26403 5.67034 2.22816C6.54959 2.1891 6.81342 2.17931 9.0375 2.17931C11.265 2.17931 11.5287 2.1891 12.4048 2.22816C13.2189 2.26403 13.6585 2.40078 13.9516 2.51475C14.313 2.64819 14.642 2.85987 14.909 3.13667C15.1858 3.40698 15.3975 3.73263 15.531 4.09415C15.645 4.38724 15.7817 4.83005 15.8176 5.64099C15.8567 6.52024 15.8665 6.78394 15.8665 9.00815C15.8665 11.2324 15.8567 11.4929 15.8176 12.3721Z" fill="#BD202F"/>
<path d="M9.03089 4.71948C6.66675 4.71948 4.7486 6.63751 4.7486 9.00177C4.7486 11.366 6.66675 13.2841 9.03089 13.2841C11.3952 13.2841 13.3132 11.366 13.3132 9.00177C13.3132 6.63751 11.3952 4.71948 9.03089 4.71948ZM9.03089 11.7796C7.49715 11.7796 6.25307 10.5356 6.25307 9.00177C6.25307 7.46791 7.49715 6.22396 9.03089 6.22396C10.5647 6.22396 11.8087 7.46791 11.8087 9.00177C11.8087 10.5356 10.5647 11.7796 9.03089 11.7796Z" fill="#BD202F"/>
<path d="M14.4823 4.55001C14.4823 5.10209 14.0347 5.54974 13.4825 5.54974C12.9304 5.54974 12.4827 5.10209 12.4827 4.55001C12.4827 3.99781 12.9304 3.55029 13.4825 3.55029C14.0347 3.55029 14.4823 3.99781 14.4823 4.55001Z" fill="#BD202F"/>
</g>
<defs>
<clipPath id="clip0">
<rect width="16.67" height="16.67" fill="white" transform="translate(0.664978 0.665039)"/>
</clipPath>
</defs>
</svg>
