<svg width="18" height="18" viewBox="0 0 18 18" fill="none" xmlns="http://www.w3.org/2000/svg">
<g clip-path="url(#clip0)">
<path d="M17.3187 5.56606C17.2797 4.68032 17.1364 4.07138 16.9312 3.54373C16.7196 2.98364 16.3939 2.48219 15.9673 2.06533C15.5504 1.64199 15.0457 1.31303 14.4921 1.10467C13.9614 0.899481 13.3556 0.756246 12.4699 0.717194C11.5775 0.674834 11.2942 0.665039 9.03095 0.665039C6.76769 0.665039 6.4844 0.674834 5.59535 0.713886C4.70961 0.752939 4.10068 0.896301 3.57315 1.10136C3.01293 1.31303 2.51148 1.63868 2.09463 2.06533C1.67128 2.48219 1.34245 2.98695 1.13396 3.54055C0.928778 4.07138 0.785543 4.67702 0.746491 5.56276C0.704131 6.45511 0.694336 6.7384 0.694336 9.00167C0.694336 11.2649 0.704131 11.5482 0.743183 12.4373C0.782236 13.323 0.925598 13.9319 1.13078 14.4596C1.34245 15.0197 1.67128 15.5211 2.09463 15.938C2.51148 16.3613 3.01624 16.6903 3.56984 16.8987C4.10068 17.1039 4.70631 17.2471 5.59217 17.2861C6.48109 17.3253 6.76451 17.335 9.02777 17.335C11.291 17.335 11.5743 17.3253 12.4634 17.2861C13.3491 17.2471 13.958 17.1039 14.4856 16.8987C15.6059 16.4655 16.4916 15.5798 16.9248 14.4596C17.1298 13.9288 17.2732 13.323 17.3122 12.4373C17.3513 11.5482 17.3611 11.2649 17.3611 9.00167C17.3611 6.7384 17.3578 6.45511 17.3187 5.56606ZM15.8176 12.3721C15.7817 13.1863 15.6449 13.6259 15.531 13.919C15.2508 14.6452 14.6745 15.2216 13.9483 15.5017C13.6552 15.6157 13.2124 15.7524 12.4014 15.7882C11.5222 15.8273 11.2585 15.837 9.03426 15.837C6.81005 15.837 6.54304 15.8273 5.66697 15.7882C4.85285 15.7524 4.41322 15.6157 4.12014 15.5017C3.75874 15.3681 3.42979 15.1564 3.16278 14.8796C2.88598 14.6093 2.67431 14.2837 2.54074 13.9223C2.42676 13.6292 2.29002 13.1863 2.25427 12.3754C2.21509 11.4962 2.20542 11.2324 2.20542 9.00815C2.20542 6.78394 2.21509 6.51694 2.25427 5.64099C2.29002 4.82687 2.42676 4.38724 2.54074 4.09415C2.67431 3.73263 2.88598 3.4038 3.16609 3.13667C3.43628 2.85987 3.76192 2.64819 4.12345 2.51475C4.41653 2.40078 4.85946 2.26403 5.67028 2.22816C6.54953 2.1891 6.81336 2.17931 9.03744 2.17931C11.265 2.17931 11.5287 2.1891 12.4047 2.22816C13.2188 2.26403 13.6585 2.40078 13.9516 2.51475C14.313 2.64819 14.6419 2.85987 14.9089 3.13667C15.1857 3.40698 15.3974 3.73263 15.531 4.09415C15.6449 4.38724 15.7817 4.83005 15.8176 5.64099C15.8566 6.52024 15.8664 6.78394 15.8664 9.00815C15.8664 11.2324 15.8566 11.4929 15.8176 12.3721Z" fill="white"/>
<path d="M9.03083 4.71948C6.66669 4.71948 4.74854 6.63751 4.74854 9.00177C4.74854 11.366 6.66669 13.2841 9.03083 13.2841C11.3951 13.2841 13.3131 11.366 13.3131 9.00177C13.3131 6.63751 11.3951 4.71948 9.03083 4.71948ZM9.03083 11.7796C7.49709 11.7796 6.25301 10.5356 6.25301 9.00177C6.25301 7.46791 7.49709 6.22396 9.03083 6.22396C10.5647 6.22396 11.8086 7.46791 11.8086 9.00177C11.8086 10.5356 10.5647 11.7796 9.03083 11.7796Z" fill="white"/>
<path d="M14.4825 4.55001C14.4825 5.10209 14.0348 5.54974 13.4826 5.54974C12.9306 5.54974 12.4829 5.10209 12.4829 4.55001C12.4829 3.99781 12.9306 3.55029 13.4826 3.55029C14.0348 3.55029 14.4825 3.99781 14.4825 4.55001Z" fill="white"/>
</g>
<defs>
<clipPath id="clip0">
<rect width="16.67" height="16.67" fill="white" transform="translate(0.665039 0.665039)"/>
</clipPath>
</defs>
</svg>
