<svg width="18" height="14" viewBox="0 0 18 14" fill="none" xmlns="http://www.w3.org/2000/svg">
<path d="M15.6667 0.333313H2.33332C1.41666 0.333313 0.67499 1.08331 0.67499 1.99998L0.666656 12C0.666656 12.9166 1.41666 13.6666 2.33332 13.6666H15.6667C16.5833 13.6666 17.3333 12.9166 17.3333 12V1.99998C17.3333 1.08331 16.5833 0.333313 15.6667 0.333313ZM15.3333 3.87498L9.44166 7.55831C9.17499 7.72498 8.82499 7.72498 8.55832 7.55831L2.66666 3.87498C2.45832 3.74165 2.33332 3.51665 2.33332 3.27498C2.33332 2.71665 2.94166 2.38331 3.41666 2.67498L8.99999 6.16665L14.5833 2.67498C15.0583 2.38331 15.6667 2.71665 15.6667 3.27498C15.6667 3.51665 15.5417 3.74165 15.3333 3.87498Z" fill="#BD202F"/>
</svg>
