<svg width="75" height="92" viewBox="0 0 75 92" fill="none" xmlns="http://www.w3.org/2000/svg">
<path d="M31.4159 0.554962C17.0091 2.87796 5.35363 13.988 1.50181 29.037C-0.899318 38.4805 1.2517 49.944 6.95438 58.327L8.50512 60.5995L6.25405 62.468C5.00346 63.478 4.00299 64.4375 4.00299 64.6395C4.00299 64.8415 6.65424 65.8515 9.90578 66.912C13.1073 67.9725 15.9586 69.033 16.2087 69.2855C16.5089 69.538 15.5084 69.74 13.7076 69.74C10.9563 69.74 10.406 69.9925 5.85387 72.8205L1.00158 75.8505V83.4255V90.95L27.1639 91.0005C41.5207 91.0005 57.7283 91.1015 63.1809 91.253L73.0355 91.455V83.88V76.305L67.9831 72.972C63.381 69.8915 62.7807 69.639 60.9298 69.8915C57.8284 70.2955 59.279 69.538 64.5315 67.9725C71.1847 66.003 71.0346 66.205 68.1332 63.7305L65.632 61.559L67.8831 58.2765C73.6358 49.9945 75.5867 39.7935 73.4357 29.0875C73.1856 27.6735 71.885 24.29 70.5343 21.462C65.8321 11.6145 56.8779 4.08996 46.5731 1.31246C43.0714 0.352959 35.1677 -0.0510406 31.4159 0.554962ZM46.7231 2.37296C58.4787 5.55446 68.3833 15.503 72.0851 27.825C73.6858 33.2285 73.6858 41.7125 72.0851 47.015C70.7845 51.358 68.1332 56.711 66.1323 59.034L64.7816 60.5995L61.7802 57.822L58.8288 55.0445L59.7293 53.681C62.8307 48.833 65.2318 41.056 64.9317 36.7635C64.6816 33.077 63.7812 34.188 63.6811 38.329C63.6311 42.2175 62.2304 48.0755 61.28 48.3785C60.9798 48.429 60.2795 47.7725 59.6792 46.8635C58.7788 45.5505 58.5287 44.49 58.5287 41.8135V38.3795L56.9279 39.238C55.4272 39.9955 55.3272 39.9955 54.6269 39.137C53.6264 37.7735 51.5254 33.5315 50.725 31.259C49.9747 29.037 50.625 28.6835 51.7255 30.7035L52.4258 32.1175L52.776 30.7035C53.1762 29.239 53.7765 28.936 54.1766 29.946C54.3267 30.2995 54.4768 29.845 54.4768 28.8855C54.5268 27.4715 54.6769 27.219 55.5273 27.4715C56.8779 27.825 56.7779 27.017 55.2772 25.5525C54.1266 24.3405 54.1266 24.29 55.0771 24.29C55.6273 24.29 55.9275 24.0375 55.7774 23.785C55.6273 23.482 54.927 23.28 54.2267 23.28C52.876 23.28 52.6759 22.674 53.7765 21.765C54.977 20.755 54.6769 20.25 53.2262 20.755C52.1257 21.2095 51.9756 21.159 52.2257 20.5025C52.6259 19.341 51.6254 19.5935 51.0252 20.8055C50.675 21.361 50.3248 21.7145 50.1748 21.6135C50.0747 21.462 50.1748 20.856 50.5249 20.3005C51.2753 18.8865 50.3749 18.9875 48.9742 20.452C47.9737 21.5125 47.6736 21.6135 47.0233 21.0075C46.423 20.452 46.1228 20.452 45.3725 21.0075C44.5721 21.6135 44.5721 21.664 45.6226 21.967C46.7231 22.27 46.7231 22.27 45.2724 23.078C43.0214 24.2395 42.5211 24.9465 44.1719 24.5425C45.8727 24.088 45.8727 24.29 44.0219 26.31C43.1715 27.219 42.6212 28.0775 42.7713 28.229C42.9213 28.3805 43.3215 28.229 43.6217 27.926C44.5721 26.9665 45.1224 27.219 44.5221 28.2795C43.8718 29.5925 43.8718 29.845 44.7222 29.542C45.1224 29.3905 45.5226 29.744 45.7227 30.451C45.9728 31.158 46.1729 31.36 46.373 30.956C46.7231 29.9965 47.3734 30.249 47.7736 31.461C48.1238 32.572 48.1738 32.5215 48.524 31.1075C48.9242 29.441 48.8241 29.2895 50.725 34.39C51.3753 36.208 52.0756 38.026 52.2257 38.4805C52.4758 38.9855 52.1757 39.44 51.2753 39.844C50.1748 40.349 50.0247 40.2985 50.0247 39.44C50.0247 38.1775 49.9246 38.1775 47.5235 39.44L45.5226 40.45V39.44C45.5226 38.632 45.3225 38.43 44.5721 38.6825C43.7717 38.935 43.5716 38.632 43.2715 36.814C43.0714 35.602 42.271 31.36 41.4707 27.32C40.6703 23.28 40.02 19.5935 40.02 19.0885C40.02 18.331 40.7203 18.23 47.9237 18.23H55.8274L57.128 19.5935C58.9289 21.5125 61.8803 26.5625 62.2805 28.3805C62.6306 29.845 63.531 30.451 63.531 29.138C63.531 28.7845 62.6806 26.815 61.6802 24.7445C59.4291 20.1995 54.5768 15.1495 50.2748 12.8265C39.5197 7.11996 26.3635 9.13996 17.9596 17.725C12.557 23.2295 10.0058 29.5925 10.0058 37.42C10.0058 43.278 11.2564 47.4695 14.558 52.974C15.2083 54.1355 15.1082 54.287 12.2569 56.9635L9.25547 59.6905L8.10493 58.2765C6.5542 56.3575 3.8029 50.4995 2.65236 46.7625C2.00205 44.49 1.75193 42.1165 1.75193 37.1675C1.80196 31.158 1.902 30.249 3.35269 26.1585C4.20309 23.7345 5.65377 20.452 6.5542 18.8865C9.05537 14.6445 14.8581 8.73596 18.96 6.21096C22.5617 4.08996 23.7123 3.58496 22.6118 4.69596C22.2616 5.04946 22.0115 5.65546 22.0115 6.05946C22.0615 6.71596 22.2116 6.66546 22.8119 5.85746C23.6122 4.74646 23.7123 4.84746 25.313 7.72596C25.9633 8.93796 27.0138 9.64496 27.0138 8.88746C27.0138 8.33196 24.3626 4.59496 23.9624 4.59496C23.7123 4.59496 23.5122 4.39296 23.5122 4.08996C23.5122 3.58496 29.1649 1.76696 32.0162 1.41346C35.1677 0.958961 43.7217 1.51446 46.7231 2.37296ZM45.9228 11.9175C47.3234 12.4225 48.524 12.978 48.524 13.1295C48.524 13.281 46.8232 13.3315 44.7222 13.18C42.6212 13.0285 40.8203 13.079 40.6703 13.3315C40.2701 13.9375 39.5197 13.18 39.5197 12.1195C39.5197 11.3115 39.1696 11.16 37.2687 11.16C35.3678 11.16 35.0176 11.3115 35.0176 12.1195C35.0176 12.978 34.5674 13.079 30.4154 13.1295C27.9143 13.18 25.9133 13.079 26.0634 12.978C26.1634 12.8265 27.8642 12.271 29.7651 11.7155C34.1172 10.4025 41.8208 10.5035 45.9228 11.9175ZM38.5193 12.675C38.5193 12.9275 37.969 13.18 37.2687 13.18C36.5683 13.18 36.0181 12.9275 36.0181 12.675C36.0181 12.372 36.5683 12.17 37.2687 12.17C37.969 12.17 38.5193 12.372 38.5193 12.675ZM35.0176 14.6445C35.0176 14.8465 32.3163 15.099 28.9648 15.1495C24.8628 15.2 23.012 15.099 23.2621 14.695C23.6623 14.089 35.0176 13.988 35.0176 14.6445ZM38.5193 14.695C38.5193 14.9475 37.969 15.2 37.2687 15.2C36.5683 15.2 36.0181 14.9475 36.0181 14.695C36.0181 14.392 36.5683 14.19 37.2687 14.19C37.969 14.19 38.5193 14.392 38.5193 14.695ZM41.0204 14.695C41.0204 14.9475 40.6703 15.2 40.2701 15.2C39.8699 15.2 39.5197 14.9475 39.5197 14.695C39.5197 14.392 39.8699 14.19 40.2701 14.19C40.6703 14.19 41.0204 14.392 41.0204 14.695ZM51.2753 14.695C51.4754 14.998 49.8746 15.2 46.8232 15.2C44.222 15.2 41.9209 14.998 41.7708 14.695C41.5707 14.392 43.1715 14.19 46.2229 14.19C48.8241 14.19 51.1252 14.392 51.2753 14.695ZM32.3664 16.513C32.0162 16.8665 20.911 16.816 20.5608 16.4625C20.4607 16.311 23.112 16.21 26.5136 16.21C29.9152 16.21 32.5665 16.3615 32.3664 16.513ZM34.6674 16.5635C34.3173 16.6645 33.717 16.6645 33.4169 16.5635C33.0667 16.412 33.3168 16.311 34.0171 16.311C34.7175 16.311 34.9676 16.412 34.6674 16.5635ZM38.1691 16.5635C37.8189 16.6645 37.1186 16.6645 36.6684 16.5635C36.1682 16.412 36.4683 16.311 37.2687 16.311C38.1191 16.311 38.4692 16.412 38.1691 16.5635ZM40.8704 16.513C40.7203 16.6645 40.2701 16.715 39.9199 16.5635C39.5197 16.412 39.6698 16.2605 40.2201 16.2605C40.7703 16.21 41.0705 16.3615 40.8704 16.513ZM54.0266 16.715C54.0266 17.2705 42.271 17.119 41.6707 16.5635C41.5207 16.3615 44.222 16.21 47.6736 16.21C51.4754 16.21 54.0266 16.412 54.0266 16.715ZM34.5174 18.9875C34.5174 19.543 33.717 23.482 32.7666 27.7745C31.8161 32.067 31.0157 35.6525 31.0157 35.7535C31.0157 35.8545 29.0648 35.8545 26.6637 35.804L22.3116 35.6525L21.7113 31.36C21.4112 28.9865 21.011 25.906 20.8109 24.492L20.5108 21.967L24.2625 21.3105C26.3635 20.957 28.3645 20.3005 28.8647 19.846C29.6651 19.038 29.565 18.9875 27.5141 18.836C24.9629 18.634 18.96 20.4015 17.9596 21.6135C17.4093 22.27 17.4593 22.472 18.2097 23.078C19.0101 23.6335 19.1101 24.189 18.81 27.1685C18.0596 34.7435 17.8595 35.905 17.3093 35.905C16.9591 35.905 16.1087 36.5615 15.3583 37.319C14.0077 38.733 13.5575 39.7935 14.5079 39.1875C15.4584 38.5815 15.0082 39.642 13.6575 41.1065C12.7071 42.1165 12.457 42.672 12.9072 42.8235C13.2073 42.975 13.5075 43.8335 13.5075 44.793V46.4595L35.3178 46.611L57.128 46.7625L58.8288 48.732L60.4796 50.7015L59.4291 52.267C58.8288 53.1255 58.3286 53.883 58.2786 53.9335C58.2285 54.0345 48.9742 56.105 48.574 56.105C48.474 56.105 48.7741 55.6 49.3244 55.0445C50.3749 53.8325 50.625 53.8325 46.9732 54.893C45.9728 55.196 45.9728 55.1455 46.7732 53.58C47.8236 51.56 47.5235 51.257 45.5226 52.3175L43.9718 53.1255L44.322 51.2065L44.6722 49.2875L43.4216 50.3985C41.7708 51.964 41.5207 51.863 41.5207 49.7925C41.5207 47.621 40.8704 47.52 40.02 49.54C39.3196 51.3075 38.7194 51.156 38.2691 49.035C37.869 47.116 37.2187 47.116 36.8685 49.035C36.4683 50.9035 35.918 50.954 35.0176 49.2875C34.0672 47.52 33.5169 47.722 33.5169 49.8935V51.762L31.9662 50.247L30.4154 48.7825L30.7656 50.954L31.1158 53.176L29.6151 52.368C27.5141 51.257 27.364 51.3075 28.2644 53.1255C28.7146 53.984 29.0148 54.7415 28.9147 54.8425C28.8147 54.9435 27.9143 54.8425 26.8638 54.6405C25.8133 54.388 25.0129 54.388 25.0129 54.6405C25.0129 54.893 25.263 55.095 25.5131 55.095C25.8133 55.095 26.0134 55.297 26.0134 55.499C26.0134 55.7515 24.1625 55.398 21.9615 54.7415C19.7104 54.1355 17.4593 53.58 16.9591 53.58C15.7585 53.58 13.3574 49.439 12.0068 45.0455C10.8062 41.258 10.6561 34.4405 11.7066 30.6025C12.6571 26.9665 14.7581 22.8255 17.1092 20.048L19.1601 17.6745L26.8137 17.7755C34.1672 17.927 34.5174 17.9775 34.5174 18.9875ZM36.5183 19.1895C36.5183 19.4925 36.3182 19.846 36.0181 19.9975C35.768 20.149 35.5178 19.947 35.5178 19.543C35.5178 19.0885 35.768 18.735 36.0181 18.735C36.3182 18.735 36.5183 18.937 36.5183 19.1895ZM39.0195 19.543C39.0195 19.947 38.7694 20.149 38.5193 19.9975C38.2191 19.7955 38.1191 19.442 38.2691 19.1895C38.7194 18.4825 39.0195 18.634 39.0195 19.543ZM38.019 20.755C38.019 21.0075 37.6689 21.26 37.2687 21.26C36.8685 21.26 36.5183 21.0075 36.5183 20.755C36.5183 20.452 36.8685 20.25 37.2687 20.25C37.6689 20.25 38.019 20.452 38.019 20.755ZM38.019 22.27C38.019 22.9265 37.4187 23.2295 36.7184 22.9265C35.6679 22.5225 35.868 21.8155 37.0186 21.9165C37.5688 21.967 38.019 22.1185 38.019 22.27ZM35.868 23.6335C35.9681 23.9365 35.7179 24.29 35.2677 24.4415C34.7675 24.694 34.5174 24.4415 34.5174 23.7345C34.5174 22.674 35.5679 22.6235 35.868 23.6335ZM39.9699 24.2395C39.8199 24.5425 39.4697 24.593 39.0695 24.3405C38.7194 24.088 38.5693 23.6335 38.7694 23.28C39.2196 22.573 40.2201 23.381 39.9699 24.2395ZM38.2191 24.7445C38.3692 24.997 37.969 25.3 37.2687 25.401C36.0681 25.6535 35.6679 25.3 36.3682 24.6435C36.8185 24.1385 37.919 24.189 38.2191 24.7445ZM20.7109 30.552C21.061 33.2285 21.2111 35.501 21.1111 35.6525C20.961 35.804 20.4107 35.905 19.8605 35.905C18.96 35.905 18.91 35.6525 19.2102 32.8245C19.3602 31.1075 19.5103 28.6835 19.5103 27.421C19.5103 23.8355 20.0606 25.2495 20.7109 30.552ZM38.5193 26.7645C38.5193 27.5725 37.1186 27.7745 36.1682 27.0675C35.3178 26.411 35.3678 26.3605 36.9185 26.31C37.7689 26.31 38.5193 26.512 38.5193 26.7645ZM34.9176 28.936C33.9171 29.6935 33.767 29.6935 33.617 29.037C33.5169 28.633 33.5669 27.926 33.717 27.522C33.9671 26.916 34.1672 26.916 35.0176 27.421C36.0181 28.0775 36.0181 28.0775 34.9176 28.936ZM40.7203 28.128C41.1705 29.2895 40.7703 29.542 39.5197 28.835C38.6193 28.33 38.5193 28.128 39.0695 27.7745C40.07 27.1685 40.3701 27.219 40.7203 28.128ZM38.8194 29.5925C39.6698 30.249 39.5698 30.2995 37.2687 30.2995C34.9676 30.2995 34.8675 30.249 35.7179 29.5925C36.2682 29.1885 36.9685 28.835 37.2687 28.835C37.5688 28.835 38.2691 29.1885 38.8194 29.5925ZM38.4192 32.168C37.1686 32.8245 36.8685 32.8245 35.6679 32.168C34.2673 31.4105 34.3173 31.4105 37.0186 31.4105C39.7198 31.4105 39.7699 31.4105 38.4192 32.168ZM35.5178 33.38C35.5178 33.5315 34.7175 34.087 33.767 34.5415C31.9162 35.4505 31.7161 35.2485 32.5164 33.178C32.9166 32.0165 33.1167 31.9155 34.2673 32.471C34.9676 32.774 35.5178 33.178 35.5178 33.38ZM41.5207 32.471C41.5207 32.8245 41.6707 33.6325 41.8208 34.289L42.171 35.4505L40.3201 34.592C38.2191 33.5315 38.1191 33.2285 39.6698 32.471C41.1705 31.764 41.5207 31.764 41.5207 32.471ZM38.5193 34.6425C39.3697 35.097 40.02 35.5515 40.02 35.6525C40.02 35.804 38.5193 35.905 36.6684 35.905L33.2668 35.8545L35.0176 34.895C37.1686 33.7335 36.7684 33.7335 38.5193 34.6425ZM34.8175 37.6725C33.717 38.4805 27.9143 38.6825 20.6608 38.0765C13.5575 37.521 16.659 36.915 26.4136 36.915C34.7675 36.9655 35.6679 37.016 34.8175 37.6725ZM39.0195 40.046C39.0195 40.8035 39.2696 41.46 39.5197 41.46C39.8199 41.46 40.02 42.369 40.02 43.48V45.5H37.0186H34.0171V43.783C34.0171 42.8235 34.2673 41.864 34.5174 41.7125C34.8175 41.561 35.0176 40.8035 35.0176 40.147C35.0176 39.3895 35.5178 38.43 36.1682 37.925C37.1686 37.0665 37.3687 37.0665 38.1691 37.7735C38.6193 38.228 39.0195 39.238 39.0195 40.046ZM42.6712 38.1775C42.8213 39.0865 42.6212 39.642 41.9709 39.945C40.5702 40.753 40.02 40.551 40.02 39.2885C40.02 38.632 39.7699 37.8745 39.4197 37.521C38.9695 37.0665 39.2196 36.915 40.6203 36.915C42.121 36.915 42.4211 37.117 42.6712 38.1775ZM33.9671 39.743C34.0672 39.844 30.1153 39.945 25.1129 39.945C19.2602 39.945 16.0087 39.743 16.0087 39.44C16.0087 38.935 33.4169 39.2885 33.9671 39.743ZM44.5221 42.7225V45.5H42.7713C41.0705 45.5 41.0204 45.4495 41.0204 43.581C41.0204 41.9145 41.2205 41.5105 42.6712 40.8035C43.5216 40.3995 44.322 39.9955 44.422 39.9955C44.4721 39.945 44.5221 41.2075 44.5221 42.7225ZM53.0261 42.7225C53.0261 45.4495 53.0261 45.5 51.5254 45.5C50.1247 45.5 50.0247 45.399 50.0247 43.48C50.0247 41.8135 50.2748 41.359 51.4253 40.753C52.1757 40.349 52.826 39.9955 52.926 39.945C52.9761 39.945 53.0261 41.2075 53.0261 42.7225ZM49.0242 42.9245C49.0242 45.5505 48.624 46.005 46.6731 45.601C45.7227 45.399 45.5226 45.0455 45.5226 43.48C45.5226 42.066 45.7727 41.5105 46.6731 41.056C48.7241 40.046 49.0242 40.2985 49.0242 42.9245ZM57.5282 42.066C57.4782 43.6315 57.4782 43.682 56.7779 42.773C55.8274 41.5105 55.8274 40.45 56.7779 40.45C57.2781 40.45 57.5282 40.955 57.5282 42.066ZM33.2668 41.46C33.0667 41.763 29.415 41.965 23.9624 41.965C18.3097 41.965 15.0082 41.763 15.0082 41.46C15.0082 41.157 18.4598 40.955 24.3126 40.955C30.3654 40.955 33.4669 41.1065 33.2668 41.46ZM55.5773 43.8335C55.9275 44.6415 56.3277 45.399 56.3777 45.5505C56.4777 45.702 56.0275 45.803 55.4272 45.7525C54.5268 45.702 54.2267 45.3485 54.1266 44.086C53.9265 42.1165 54.6269 42.0155 55.5773 43.8335ZM33.0167 44.2375V45.5H23.7623H14.5079V44.2375V42.975H23.7623H33.0167V44.2375ZM39.5197 52.065L40.3701 50.9035L40.7203 52.3175L41.0705 53.7315L42.3211 52.57C43.6717 51.257 43.7717 51.358 43.0214 53.277C42.5211 54.691 43.3215 55.095 44.422 53.984C45.3225 53.075 45.6726 53.8325 45.0223 55.1455C44.422 56.206 44.4721 56.2565 45.9728 55.9535C48.4239 55.4485 47.3734 56.408 43.3716 58.327C41.3706 59.2865 39.1696 60.448 38.4692 60.953C37.1686 61.8115 37.1186 61.761 35.4178 60.4985C34.5174 59.7915 32.4164 58.5795 30.8657 57.8725C27.6641 56.3575 27.2139 55.6505 29.6651 56.004C30.9657 56.206 31.1658 56.105 30.6656 55.5495C29.6151 54.4385 29.8652 53.4285 30.9657 54.085C32.4164 54.8425 32.5665 54.7415 32.2163 53.176C31.8661 51.863 31.9162 51.8125 32.8666 52.671C34.2172 53.883 34.5174 53.8325 34.5174 52.166L34.5674 50.8025L35.4678 51.9135C36.6184 53.3275 37.0186 53.378 37.0186 52.166C37.0186 50.6005 37.7189 50.3985 38.2191 51.863L38.6693 53.2265L39.5197 52.065ZM21.6613 55.5495C26.8137 56.913 32.4164 59.337 34.6674 61.2055L36.5183 62.7205V68.528C36.5183 71.7095 36.4183 74.285 36.2682 74.285C36.1181 74.285 34.9676 73.477 33.667 72.4165C29.465 69.1845 20.5108 65.5485 13.2574 64.185C11.3565 63.781 9.65566 63.4275 9.55561 63.377C9.05537 62.973 16.4589 54.59 17.2592 54.59C17.6094 54.59 19.5603 55.0445 21.6613 55.5495ZM61.0299 59.64C63.0308 62.165 64.5815 64.286 64.4815 64.387C64.3815 64.4375 62.0303 64.9425 59.279 65.4475C51.1752 66.912 44.9723 69.3865 39.9199 73.1235L37.5188 74.891V68.831V62.7205L39.0195 61.66C41.5707 59.7915 47.6236 57.2665 51.5254 56.3575C53.5764 55.903 55.5273 55.4485 55.7774 55.3475C57.078 54.893 57.6783 55.398 61.0299 59.64ZM9.30549 61.862L7.50464 64.0335L9.60563 64.387C13.9577 65.094 21.3612 67.215 25.313 68.8815C29.1649 70.4975 34.3173 73.6285 33.8671 74.083C33.717 74.2345 23.9624 70.952 7.80478 65.2455L5.40365 64.387L8.0549 62.0135C9.55561 60.751 10.8062 59.64 10.9062 59.64C11.0063 59.64 10.2559 60.65 9.30549 61.862ZM66.4824 63.3265L68.6335 65.599L61.23 67.9725C57.128 69.235 50.725 71.255 47.0233 72.467C43.3215 73.6285 40.17 74.5375 40.07 74.4365C39.3697 73.881 47.0733 69.74 51.5254 68.326C54.5268 67.3665 59.9794 66.1545 64.6816 65.4475L66.5825 65.1445L64.4315 62.569C61.9303 59.539 63.2809 60.044 66.4824 63.3265ZM27.1139 72.871C30.6155 74.0325 33.5169 75.194 33.5169 75.396C33.5169 75.598 26.8638 75.8 18.7599 75.8C10.6561 75.8 4.00299 75.6485 4.00299 75.396C4.05302 75.194 5.65377 74.083 7.65471 72.9215C11.2064 70.8005 11.3565 70.75 16.0087 70.75C20.2106 70.75 21.4112 70.952 27.1139 72.871ZM66.6325 73.1235C68.7835 74.487 70.4843 75.6485 70.5343 75.8C70.5343 76.103 41.4206 75.8505 41.1205 75.598C41.0204 75.497 44.0719 74.386 47.8737 73.1235C53.5764 71.255 55.4773 70.851 58.7788 70.8005C62.7307 70.75 62.8807 70.8005 66.6325 73.1235ZM71.935 83.5265L72.0851 89.9905L37.1686 89.839L2.25217 89.6875L2.15212 83.9305C2.15212 80.749 2.20214 77.8705 2.35221 77.4665C2.60233 76.8605 8.15495 76.81 37.2187 76.911L71.7849 77.0625L71.935 83.5265Z" fill="#B60305"/>
</svg>
